<svg xmlns="http://www.w3.org/2000/svg" viewBox="0 0 800 600" font-family="monospace">
  <rect width="800" height="600" fill="#F2F3F1"/>
  <g stroke="#C9CCC7" stroke-width="1">
    <line x1="40" y1="0" x2="40" y2="600"/>
<line x1="80" y1="0" x2="80" y2="600"/>
<line x1="120" y1="0" x2="120" y2="600"/>
<line x1="160" y1="0" x2="160" y2="600"/>
<line x1="200" y1="0" x2="200" y2="600"/>
<line x1="240" y1="0" x2="240" y2="600"/>
<line x1="280" y1="0" x2="280" y2="600"/>
<line x1="320" y1="0" x2="320" y2="600"/>
<line x1="360" y1="0" x2="360" y2="600"/>
<line x1="400" y1="0" x2="400" y2="600"/>
<line x1="440" y1="0" x2="440" y2="600"/>
<line x1="480" y1="0" x2="480" y2="600"/>
<line x1="520" y1="0" x2="520" y2="600"/>
<line x1="560" y1="0" x2="560" y2="600"/>
<line x1="600" y1="0" x2="600" y2="600"/>
<line x1="640" y1="0" x2="640" y2="600"/>
<line x1="680" y1="0" x2="680" y2="600"/>
<line x1="720" y1="0" x2="720" y2="600"/>
<line x1="760" y1="0" x2="760" y2="600"/>
    <line x1="0" y1="40" x2="800" y2="40"/>
<line x1="0" y1="80" x2="800" y2="80"/>
<line x1="0" y1="120" x2="800" y2="120"/>
<line x1="0" y1="160" x2="800" y2="160"/>
<line x1="0" y1="200" x2="800" y2="200"/>
<line x1="0" y1="240" x2="800" y2="240"/>
<line x1="0" y1="280" x2="800" y2="280"/>
<line x1="0" y1="320" x2="800" y2="320"/>
<line x1="0" y1="360" x2="800" y2="360"/>
<line x1="0" y1="400" x2="800" y2="400"/>
<line x1="0" y1="440" x2="800" y2="440"/>
<line x1="0" y1="480" x2="800" y2="480"/>
<line x1="0" y1="520" x2="800" y2="520"/>
<line x1="0" y1="560" x2="800" y2="560"/>
  </g>
  <g stroke="#1B1F24" stroke-width="4" fill="none">
    <polyline points="200,440 200,280 400,150 600,280 600,440 200,440"/><rect x="350" y="210" width="100" height="70"/><rect x="240" y="330" width="90" height="110"/><rect x="470" y="330" width="100" height="70"/><line x1="170" y1="280" x2="400" y2="140"/><line x1="400" y1="140" x2="630" y2="280"/>
  </g>
</svg>
